<svg width="32" height="32" viewBox="0 0 32 32" fill="none" xmlns="http://www.w3.org/2000/svg">
<path d="M31.6418 16C31.6418 7.38138 24.6186 0.358215 16 0.358215C7.38138 0.358215 0.358215 7.38138 0.358215 16C0.358215 20.5361 2.31344 24.6186 5.41051 27.4811C5.41051 27.4967 5.41051 27.4967 5.39487 27.5124C5.55129 27.6688 5.73899 27.7939 5.89541 27.9347C5.98926 28.0129 6.06747 28.0911 6.16132 28.1537C6.44287 28.3883 6.7557 28.6073 7.0529 28.8263C7.16239 28.9045 7.25624 28.967 7.36573 29.0452C7.66293 29.2486 7.97576 29.4363 8.30424 29.6084C8.41373 29.6709 8.53887 29.7491 8.64836 29.8117C8.9612 29.9838 9.28967 30.1402 9.63379 30.2809C9.75893 30.3435 9.88406 30.4061 10.0092 30.453C10.3533 30.5938 10.6974 30.7189 11.0416 30.8284C11.1667 30.8753 11.2918 30.9223 11.417 30.9535C11.7924 31.063 12.1678 31.1569 12.5432 31.2507C12.6527 31.282 12.7621 31.3133 12.8873 31.3289C13.3253 31.4228 13.7632 31.4854 14.2168 31.5323C14.2794 31.5323 14.342 31.5479 14.4045 31.5636C14.9364 31.6105 15.4682 31.6418 16 31.6418C16.5318 31.6418 17.0636 31.6105 17.5798 31.5636C17.6424 31.5636 17.705 31.5479 17.7675 31.5323C18.2211 31.4854 18.6591 31.4228 19.0971 31.3289C19.2066 31.3133 19.3161 31.2664 19.4412 31.2507C19.8166 31.1569 20.2076 31.0787 20.5674 30.9535C20.6925 30.9066 20.8177 30.8597 20.9428 30.8284C21.2869 30.7033 21.6467 30.5938 21.9752 30.453C22.1003 30.4061 22.2254 30.3435 22.3506 30.2809C22.679 30.1402 23.0075 29.9838 23.336 29.8117C23.4611 29.7491 23.5706 29.6709 23.6801 29.6084C23.993 29.4207 24.3058 29.2486 24.6186 29.0452C24.7281 28.9827 24.822 28.9045 24.9315 28.8263C25.2443 28.6073 25.5415 28.3883 25.823 28.1537C25.9169 28.0755 25.9951 27.9972 26.089 27.9347C26.261 27.7939 26.4331 27.6531 26.5895 27.5124C26.5895 27.4967 26.5895 27.4967 26.5738 27.4811C29.6866 24.6186 31.6418 20.5361 31.6418 16ZM23.727 23.774C19.4881 20.9272 12.5432 20.9272 8.27296 23.774C7.58472 24.2276 7.02162 24.7594 6.55236 25.3381C4.17481 22.9293 2.70448 19.6289 2.70448 16C2.70448 8.664 8.664 2.70448 16 2.70448C23.336 2.70448 29.2955 8.664 29.2955 16C29.2955 19.6289 27.8252 22.9293 25.4476 25.3381C24.994 24.7594 24.4153 24.2276 23.727 23.774Z" fill="#FFFFFF"/>
<path d="M16 8.06912C12.7621 8.06912 10.1343 10.6969 10.1343 13.9348C10.1343 17.1101 12.6214 19.691 15.9218 19.7848H16.0626H16.1721H16.2033C19.363 19.6753 21.85 17.1101 21.8657 13.9348C21.8657 10.6969 19.2378 8.06912 16 8.06912Z" fill="#FFFFFF"/>
</svg>
